<?xml version="1.0" standalone="no"?>
<!DOCTYPE svg PUBLIC "-//W3C//DTD SVG 20010904//EN"
 "http://www.w3.org/TR/2001/REC-SVG-20010904/DTD/svg10.dtd">
<svg version="1.0" xmlns="http://www.w3.org/2000/svg"
 width="512.000000pt" height="512.000000pt" viewBox="0 0 512.000000 512.000000"
 preserveAspectRatio="xMidYMid meet">
<metadata>
Created by potrace 1.16, written by Peter Selinger 2001-2019
</metadata>
<g transform="translate(0.000000,512.000000) scale(0.100000,-0.100000)"
fill="#ed0677" stroke="none">
<path d="M2726 4560 c-222 -20 -435 -111 -611 -259 l-59 -51 -171 0 c-191 0
-317 -17 -434 -57 -333 -114 -589 -382 -685 -715 -39 -136 -52 -275 -37 -407
10 -95 40 -224 65 -283 7 -15 -3 -16 -101 -16 -179 0 -304 -40 -435 -142 -153
-118 -245 -292 -255 -483 -7 -120 9 -170 70 -222 74 -63 175 -71 261 -21 59
34 95 95 107 181 5 36 16 82 25 103 67 161 295 186 399 43 47 -64 55 -124 55
-410 0 -179 4 -261 15 -316 39 -189 147 -363 299 -482 116 -91 313 -173 414
-173 27 0 48 -15 123 -85 68 -63 113 -96 179 -129 170 -85 100 -81 1340 -81
1034 0 1098 1 1142 18 88 34 134 113 126 218 -5 73 -43 132 -107 166 -40 21
-57 23 -178 23 l-133 0 0 168 c-1 272 -23 379 -108 524 -52 88 -157 199 -230
243 l-49 29 -7 153 c-3 84 -13 185 -21 224 -8 38 -15 72 -15 75 0 2 89 4 198
4 156 0 208 3 246 16 44 15 50 15 94 -1 109 -41 217 -137 276 -245 54 -100 66
-166 66 -385 0 -104 3 -207 6 -228 11 -64 63 -138 123 -174 131 -78 284 -40
370 92 l26 40 3 257 c3 206 0 275 -13 344 -52 277 -220 533 -451 686 -38 25
-85 54 -104 63 -34 16 -36 20 -48 93 -7 47 -25 104 -45 145 -34 68 -34 69 -20
125 53 225 26 496 -71 708 -115 248 -337 457 -590 555 -162 63 -224 70 -606
74 -190 2 -390 0 -444 -5z m810 -181 c175 -31 343 -115 474 -239 l55 -52 -45
-12 c-70 -18 -156 -66 -216 -119 l-54 -49 -55 51 c-63 56 -151 103 -240 126
-74 19 -113 19 -208 1 -328 -63 -595 -327 -668 -661 -21 -94 -16 -294 10 -390
44 -169 154 -341 283 -445 88 -70 160 -110 271 -148 94 -33 114 -36 244 -40
l143 -5 10 -36 c5 -20 14 -56 20 -81 16 -65 25 -611 12 -753 -6 -64 -21 -150
-33 -190 -31 -106 -103 -236 -168 -304 l-56 -59 -147 4 -146 3 -4 232 c-4 217
-6 237 -30 310 -38 112 -100 211 -187 297 -142 139 -283 200 -487 208 -167 6
-247 -14 -426 -106 -5 -2 -8 39 -8 92 l0 96 182 0 c173 0 183 1 205 22 33 31
31 87 -3 119 l-26 24 -306 6 c-312 7 -330 9 -448 52 -253 93 -462 310 -544
564 -73 227 -59 453 41 662 67 142 180 276 304 361 104 72 311 150 397 150
l28 0 0 -93 0 -92 -81 -18 c-129 -29 -229 -86 -334 -192 -74 -73 -99 -106
-133 -175 -54 -110 -74 -200 -75 -325 0 -309 193 -574 488 -672 78 -26 87 -27
372 -31 l292 -4 26 26 c25 25 32 65 19 100 -11 29 -47 41 -137 46 l-87 5 55
63 c71 82 73 109 12 184 -23 29 -53 70 -66 91 l-23 37 26 0 c41 0 80 41 80 85
0 50 -34 80 -102 88 -248 29 -353 302 -187 486 29 31 45 41 69 41 l31 0 -30
-19 c-141 -85 -158 -303 -34 -418 38 -35 110 -63 163 -63 65 0 96 27 96 82 0
48 -26 76 -80 84 -120 19 -120 169 0 188 52 8 80 39 80 87 0 21 -5 41 -11 45
-6 3 12 14 41 24 64 22 95 44 137 98 37 49 56 127 47 191 -8 54 -49 135 -81
161 l-24 18 43 30 c109 74 214 119 343 147 76 17 801 20 891 4z m-1373 -327
c44 -41 42 -98 -4 -141 -21 -19 -35 -21 -151 -21 l-128 0 0 96 0 96 129 -4
c119 -3 131 -5 154 -26z m1315 -157 c75 -34 125 -77 178 -150 72 -101 119 -99
199 9 61 84 155 151 199 142 38 -8 151 -64 169 -85 20 -22 54 -137 63 -209 l6
-61 -41 21 c-40 19 -41 19 -78 1 -59 -29 -69 -98 -21 -143 30 -27 87 -27 118
2 l23 22 -6 -70 c-4 -38 -16 -100 -27 -139 -26 -92 -26 -104 12 -156 46 -63
71 -151 63 -219 -12 -112 -83 -212 -183 -262 -46 -23 -53 -23 -434 -26 -439
-3 -463 0 -607 69 -67 33 -102 58 -171 128 -75 73 -94 100 -133 181 -58 121
-72 181 -71 305 0 223 115 435 302 558 78 52 121 72 217 98 84 23 147 18 223
-16z m-1851 -257 c-31 -77 -30 -240 2 -320 27 -70 98 -166 145 -199 25 -17 43
-43 63 -89 15 -36 51 -100 80 -143 l52 -79 -49 -64 c-28 -36 -54 -74 -60 -84
-9 -16 -21 -20 -68 -20 -240 1 -465 180 -521 414 -17 70 -15 195 5 263 41 144
145 272 275 337 97 49 102 47 76 -16z m2902 -960 c82 -50 192 -154 260 -247
69 -95 138 -267 155 -388 l6 -43 -95 0 c-68 0 -97 4 -99 13 -2 6 -10 44 -20
82 -36 152 -138 304 -267 394 -39 27 -76 52 -82 54 -7 2 1 19 20 43 17 22 39
56 49 77 10 20 22 37 27 37 5 0 26 -10 46 -22z m-3660 -113 c39 -18 83 -55
162 -136 156 -159 151 -144 159 -539 6 -292 8 -320 29 -380 51 -146 144 -257
268 -323 68 -35 70 -38 85 -92 l16 -57 -27 7 c-45 11 -151 63 -194 97 -140
106 -214 217 -258 383 -16 59 -19 109 -19 310 -1 289 -8 357 -49 439 -121 245
-454 300 -648 106 -64 -64 -102 -140 -115 -232 -12 -76 -29 -108 -59 -108 -32
0 -49 28 -49 84 0 186 161 393 355 456 101 33 252 26 344 -15z m756 -446 l85
-12 0 -172 0 -172 -29 -41 c-64 -88 -106 -189 -125 -305 l-12 -71 -52 48 c-35
33 -65 75 -90 125 l-37 75 -5 301 -5 301 93 -32 c50 -18 130 -38 177 -45z
m798 -275 c163 -42 297 -154 372 -309 51 -107 55 -145 55 -490 l0 -315 -329 0
c-323 0 -332 0 -408 25 -407 129 -530 640 -228 940 76 75 160 124 255 149 74
20 208 20 283 0z m2527 -139 c0 -140 -9 -166 -62 -184 -22 -8 -38 -7 -64 4
-51 21 -64 61 -64 195 l0 110 95 0 95 0 0 -125z m-1053 -142 c63 -119 66 -136
71 -500 l4 -333 -260 0 -259 0 -6 58 c-6 54 -5 59 27 92 85 90 169 229 210
346 38 109 55 211 63 370 l6 148 57 -62 c31 -34 71 -87 87 -119z m-625 -778
c21 -46 0 -55 -133 -55 l-119 0 0 40 0 40 120 0 c118 0 121 0 132 -25z m1112
3 c8 -13 8 -23 0 -35 -9 -15 -29 -18 -128 -21 l-116 -3 0 41 0 41 116 -3 c99
-3 119 -6 128 -20z"/>
<path d="M3195 3572 c-64 -13 -88 -100 -40 -147 55 -56 147 -18 147 60 0 58
-49 98 -107 87z"/>
<path d="M3585 3275 c-36 -35 -33 -81 7 -129 60 -73 140 -80 174 -14 21 40 5
86 -47 132 -49 45 -97 49 -134 11z"/>
<path d="M3911 3264 c-73 -65 -75 -141 -6 -170 46 -19 89 -2 133 52 40 48 43
94 7 129 -37 38 -85 34 -134 -11z"/>
</g>
</svg>
