<?xml version="1.0" encoding="iso-8859-1"?>
<!-- Generator: Adobe Illustrator 19.0.0, SVG Export Plug-In . SVG Version: 6.00 Build 0)  -->
<svg version="1.1" id="Layer_1" xmlns="http://www.w3.org/2000/svg" xmlns:xlink="http://www.w3.org/1999/xlink" x="0px" y="0px"
	 viewBox="0 0 512 512" style="enable-background:new 0 0 512 512;" xml:space="preserve" fill="currentColor">
<g transform="translate(1 1)">
	<g>
		<g>
			<path d="M459.8,7.533H134.68c-27.307,0-50.347,23.04-50.347,50.347V127H49.347C22.04,127-1,149.187-1,177.347v180.907
				C-1,385.56,22.04,408.6,49.347,408.6H101.4v85.333c0,3.413,2.56,6.827,5.12,7.68c1.707,0.853,2.56,0.853,3.413,0.853
				c2.56,0,4.267-0.853,5.973-3.413l82.773-91.307h175.787c27.307,0,50.347-22.187,50.347-50.347v-68.267h35.84
				c27.307,0,50.347-23.04,50.347-51.2V57.88C511,30.573,487.96,7.533,459.8,7.533z M408.6,358.253
				c0,17.92-14.507,33.28-33.28,33.28H195.267c-1.707,0-4.267,0.853-5.973,2.56l-70.827,77.653v-71.68
				c0-5.12-3.413-8.533-8.533-8.533H49.347c-17.92,0-33.28-15.36-33.28-34.133V177.347c0-17.92,15.36-33.28,33.28-33.28h43.52
				H375.32c17.92,0,33.28,14.507,33.28,33.28V280.6V358.253z M493.933,238.787c0,17.92-14.507,33.28-33.28,33.28h-34.987v-94.72
				c0-27.307-22.187-50.347-50.347-50.347h-0.853H101.4V57.88c0-17.92,15.36-33.28,33.28-33.28h325.973
				c17.92,0,33.28,15.36,33.28,33.28V238.787z"/>
			<path d="M218.307,172.227c-1.707-1.707-3.413-2.56-5.973-2.56c-2.56,0-4.267,0.853-5.973,2.56l-93.867,93.867
				c-3.413,3.413-3.413,8.533,0,11.947l25.6,25.6c1.707,1.707,3.413,2.56,5.973,2.56s4.267-0.853,5.973-2.56l2.56-2.56v47.787
				c0,5.12,3.413,8.533,8.533,8.533h102.4c5.12,0,8.533-3.413,8.533-8.533V301.08l2.56,2.56c1.707,1.707,3.413,2.56,5.973,2.56
				s4.267-0.853,5.973-2.56l25.6-25.6c1.707-1.707,2.56-3.413,2.56-5.973c0-2.56-0.853-4.267-2.56-5.973L218.307,172.227z
				 M255,284.013v56.32h-85.333v-56.32l42.667-42.667L255,284.013z M280.6,285.72l-11.093-11.093l-51.2-51.2
				c-0.853-1.707-2.56-2.56-4.267-2.56c0,0-0.853,0-1.707,0c-2.56,0-4.267,0.853-5.973,2.56l-51.2,51.2c0,0,0,0.001-0.001,0.001
				l-11.093,11.093l-13.653-13.653l81.92-81.92l81.92,81.92L280.6,285.72z"/>
		</g>
	</g>
</g>
<g>
</g>
<g>
</g>
<g>
</g>
<g>
</g>
<g>
</g>
<g>
</g>
<g>
</g>
<g>
</g>
<g>
</g>
<g>
</g>
<g>
</g>
<g>
</g>
<g>
</g>
<g>
</g>
<g>
</g>
</svg>
